<svg xmlns="http://www.w3.org/2000/svg" viewBox="0 0 380 295.1"><defs/><defs><style>.cls-3{fill:#fff}.cls-5{fill:none;stroke:#fff;stroke-miterlimit:10;stroke-width:2px}</style></defs><g id="Ebene_2" data-name="Ebene 2"><g id="Smartphone"><path fill="#300a24" d="M0 14h380v264.6a16.5 16.5 0 01-16.5 16.5h-347A16.5 16.5 0 010 278.6V14z"/><path fill="#2c2c2c" d="M9.6 0h360.8a9.6 9.6 0 019.6 9.6V19H0V9.6A9.6 9.6 0 019.6 0z"/><rect width="6.4" height=".8" x="341.3" y="9.1" class="cls-3" rx=".4" ry=".4"/><circle cx="369.9" cy="9.5" r="5.5" fill="#cc5e2e"/><path d="M372.9 7l-5.3 5.4a.4.4 0 01-.6 0 .4.4 0 010-.5l5.3-5.4a.4.4 0 01.5 0 .4.4 0 010 .6z" class="cls-3"/><path d="M367.6 6.5l5.2 5.4a.4.4 0 010 .5.4.4 0 01-.5 0L367 7.1a.4.4 0 010-.6.4.4 0 01.6 0z" class="cls-3"/><path d="M352.7 7.1h4.6v4.7h-4.6z" class="cls-5"/><rect width="12.3" height="13.2" x="324.2" y="2.9" fill="#484848" rx="6" ry="6"/><circle cx="329.9" cy="8.9" r="2.7" class="cls-5"/><path d="M331.8 11.1l1.4 1.5" class="cls-5"/><path d="M48.2 174.4h270.9v47.3H48.2z" class="cls-3" transform="rotate(-6.3 183.7 198.1)"/><path d="M63.3 147.4h260.8v47.3H63.3z" class="cls-3" transform="rotate(5.4 193.6 171)"/><path d="M57.6 119.8h246.3v47.3H57.6z" class="cls-3" transform="rotate(-7.2 180.7 143.4)"/><path d="M60.4 92.7h248.3V140H60.4z" class="cls-3" transform="rotate(5.4 184.5 116.3)"/><path d="M53.3 201.9h275.4v47.3H53.3z" class="cls-3" transform="rotate(5.4 191 225.5)"/></g></g></svg>