<svg xmlns="http://www.w3.org/2000/svg" viewBox="0 0 380 295.11">
  <defs>
    <style>
      .cls-1 {
        fill: #300a24;
      }

      .cls-2 {
        fill: #2c2c2c;
      }

      .cls-3, .cls-7 {
        fill: #fff;
      }

      .cls-4 {
        fill: #cc5e2e;
      }

      .cls-5 {
        fill: none;
      }

      .cls-5, .cls-7 {
        stroke: #fff;
        stroke-miterlimit: 10;
        stroke-width: 1px;
      }

      .cls-6 {
        fill: #484848;
      }

      .terminal-green-text {
        font: .5em sans-serif; 
        fill: #4e9608;
      }
    </style>
  </defs>
  <title>linux-terminal-newElement 7</title>
  <g id="Ebene_2" data-name="Ebene 2">
    <g id="Smartphone">
      <path class="cls-1" d="M0,14H380a0,0,0,0,1,0,0V278.61a16.5,16.5,0,0,1-16.5,16.5H16.5A16.5,16.5,0,0,1,0,278.61V14A0,0,0,0,1,0,14Z"/>
      <g>
        <g>
          <path class="cls-2" d="M9.57,0H370.43A9.57,9.57,0,0,1,380,9.57V19a0,0,0,0,1,0,0H0a0,0,0,0,1,0,0V9.57A9.57,9.57,0,0,1,9.57,0Z"/>
          <text x="50%" y="50%" dominant-baseline="middle" text-anchor="middle">Hello world</text>
          <rect class="cls-3" x="341.26" y="9.06" width="6.41" height="0.84" rx="0.42" ry="0.42"/>
          <g>
            <ellipse class="cls-4" cx="369.94" cy="9.48" rx="5.49" ry="5.54"/>
            <path class="cls-3" d="M372.85,7.09l-5.28,5.32a.38.38,0,0,1-.54,0h0a.38.38,0,0,1,0-.54l5.28-5.33a.38.38,0,0,1,.54,0h0A.39.39,0,0,1,372.85,7.09Z"/>
            <path class="cls-3" d="M367.57,6.54l5.28,5.33a.38.38,0,0,1,0,.54h0a.38.38,0,0,1-.54,0L367,7.09a.39.39,0,0,1,0-.55h0A.38.38,0,0,1,367.57,6.54Z"/>
          </g>
          <rect class="cls-5" x="352.7" y="7.14" width="4.63" height="4.67"/>
          <g>
            <rect class="cls-6" x="324.4" y="2.96" width="12.18" height="13.04" rx="3" ry="3"/>
            <line class="cls-7" x1="328.43" y1="7.5" x2="332.78" y2="7.5"/>
            <line class="cls-7" x1="328.43" y1="9.5" x2="332.78" y2="9.5"/>
            <line class="cls-7" x1="328.43" y1="11.5" x2="332.78" y2="11.5"/>
          </g>
          <g>
            <rect class="cls-6" x="311.22" y="2.9" width="12.29" height="13.15" rx="3" ry="3"/>
            <circle class="cls-5" cx="316.93" cy="8.93" r="2.74"/>
            <line class="cls-5" x1="318.76" y1="11.12" x2="320.22" y2="12.58"/>
          </g>
        </g>
      </g>
      <rect class="cls-3" x="48.16" y="174.37" width="270.88" height="47.3" transform="translate(-20.6 21.32) rotate(-6.29)"/>
      <rect class="cls-3" x="63.32" y="147.41" width="260.76" height="47.3" transform="translate(16.79 -17.31) rotate(5.35)"/>
      <rect class="cls-3" x="57.64" y="119.82" width="246.34" height="47.3" transform="translate(-16.5 23.71) rotate(-7.18)"/>
      <rect class="cls-3" x="60.4" y="92.7" width="248.35" height="47.3" transform="translate(11.65 -16.7) rotate(5.35)"/>
      <rect class="cls-3" x="53.3" y="201.89" width="275.41" height="47.3" transform="translate(21.86 -16.82) rotate(5.35)"/>
      <g>
        <path class="cls-1" d="M117.8,112.6h2.74v15.77H117.8Z"/>
        <path class="cls-1" d="M126.41,122.37c0-3.93,1.88-6.3,3.82-6.3a2.75,2.75,0,0,1,2.26,1.25l-.1-1.82v-4.09h2.73v17H132.9l-.2-1.19h-.07a3.36,3.36,0,0,1-2.45,1.48C127.89,128.66,126.41,126.29,126.41,122.37Zm6,2.3v-4.93a2,2,0,0,0-1.52-.76c-.89,0-1.66,1.07-1.66,3.35s.62,3.42,1.68,3.42C131.47,125.75,131.94,125.46,132.39,124.67Z"/>
        <path class="cls-1" d="M137,122.37c0-4,2.16-6.3,4.49-6.3s4.49,2.31,4.49,6.3-2.16,6.29-4.49,6.29S137,126.35,137,122.37Zm6.18,0c0-2.08-.56-3.43-1.69-3.43s-1.69,1.35-1.69,3.43.56,3.42,1.69,3.42S143.17,124.45,143.17,122.37Z"/>
        <path class="cls-1" d="M147.83,116.36h2.23l.2,1.52h.07a3.91,3.91,0,0,1,3-1.81c2,0,2.85,1.84,2.85,4.84v7.46h-2.72v-7c0-1.73-.36-2.27-1.15-2.27s-1.1.42-1.71,1.17v8.1h-2.73Z"/>
        <path class="cls-1" d="M158.2,118.29a3.34,3.34,0,0,0,1.68-3.08l-.07-2.09.9,1.62a1.47,1.47,0,0,1-1,.52c-.78,0-1.42-.68-1.42-1.77s.59-2,1.42-2c1.14,0,1.75,1.16,1.75,3.16a5.75,5.75,0,0,1-2.64,5.17Z"/>
        <path class="cls-1" d="M164,124v-4.85h-1.26V116.5l1.41-.14.32-3.19h2.26v3.19H169v2.79h-2.2V124c0,1.36.47,1.91,1.19,1.91a2.24,2.24,0,0,0,.87-.23l.43,2.58a5.12,5.12,0,0,1-2,.44C164.94,128.66,164,126.78,164,124Z"/>
        <path class="cls-1" d="M172.33,132.78l.49-2.62a1.87,1.87,0,0,0,.72.16c.73,0,1-.59,1-1.93v-12h2.73v11.92c0,2.63-.78,4.83-3.29,4.83A3.46,3.46,0,0,1,172.33,132.78Zm2-20a1.6,1.6,0,1,1,3.16,0,1.6,1.6,0,1,1-3.16,0Z"/>
        <path class="cls-1" d="M179.56,123.82v-7.46h2.73v7c0,1.73.36,2.27,1.15,2.27s1.1-.38,1.64-1.32v-8h2.73v12h-2.23l-.2-1.67h-.07a3.43,3.43,0,0,1-2.89,2C180.42,128.66,179.56,126.82,179.56,123.82Z"/>
        <path class="cls-1" d="M189.4,127l1.22-2.21A3.57,3.57,0,0,0,193,126c.81,0,1.16-.41,1.16-1,0-.79-.91-1.15-1.86-1.63a3.84,3.84,0,0,1-2.43-3.53,3.44,3.44,0,0,1,3.51-3.76,4.56,4.56,0,0,1,3.25,1.52l-1.22,2.14a3.06,3.06,0,0,0-1.94-1c-.71,0-1.05.36-1.05,1,0,.77.86,1.06,1.82,1.51a3.73,3.73,0,0,1,2.48,3.62,3.59,3.59,0,0,1-3.79,3.87A5.21,5.21,0,0,1,189.4,127Z"/>
        <path class="cls-1" d="M198.43,124v-4.85h-1.26V116.5l1.41-.14.32-3.19h2.26v3.19h2.21v2.79h-2.21V124c0,1.36.48,1.91,1.19,1.91a2.24,2.24,0,0,0,.88-.23l.43,2.58a5.17,5.17,0,0,1-2,.44C199.34,128.66,198.43,126.78,198.43,124Z"/>
        <path class="cls-1" d="M211.32,127.09h-.07l-.23,1.28h-2.13v-17h2.73v4.15l-.07,1.84a3.35,3.35,0,0,1,2.44-1.33c2.23,0,3.61,2.4,3.61,6.08,0,4.15-1.88,6.51-3.88,6.51A3.14,3.14,0,0,1,211.32,127.09Zm3.48-4.87c0-2.16-.51-3.24-1.6-3.24-.56,0-1,.33-1.58,1.08V125a1.92,1.92,0,0,0,1.46.76C214,125.75,214.8,124.7,214.8,122.22Z"/>
        <path class="cls-1" d="M219.43,123.82v-7.46h2.73v7c0,1.73.36,2.27,1.15,2.27s1.1-.38,1.63-1.32v-8h2.73v12h-2.22l-.2-1.67h-.07a3.43,3.43,0,0,1-2.89,2C220.29,128.66,219.43,126.82,219.43,123.82Z"/>
        <path class="cls-1" d="M229.87,112.75a1.6,1.6,0,1,1,3.16,0,1.6,1.6,0,1,1-3.16,0Zm.21,3.61h2.73v12h-2.73Z"/>
        <path class="cls-1" d="M235.21,124.64V111.41h2.73v13.37c0,.77.27,1,.49,1a.93.93,0,0,0,.34-.05l.32,2.62a2.78,2.78,0,0,1-1.37.3C235.85,128.66,235.21,127.07,235.21,124.64Z"/>
        <path class="cls-1" d="M240.05,122.37c0-3.93,1.88-6.3,3.82-6.3a2.75,2.75,0,0,1,2.26,1.25l-.1-1.82v-4.09h2.73v17h-2.23l-.19-1.19h-.07a3.36,3.36,0,0,1-2.45,1.48C241.53,128.66,240.05,126.29,240.05,122.37Zm6,2.3v-4.93a2,2,0,0,0-1.52-.76c-.89,0-1.66,1.07-1.66,3.35s.62,3.42,1.68,3.42C245.11,125.75,245.58,125.46,246,124.67Z"/>
        <path class="cls-1" d="M129.08,151.4c0-4,2.26-6.29,4.8-6.29a3.52,3.52,0,0,1,2.7,1.29l-1.29,2.29A1.67,1.67,0,0,0,134,148c-1.32,0-2.16,1.34-2.16,3.42s.88,3.42,2.07,3.42a2.49,2.49,0,0,0,1.66-.88l1.07,2.32a4,4,0,0,1-3,1.43C131.07,157.69,129.08,155.39,129.08,151.4Z"/>
        <path class="cls-1" d="M137.25,151.4c0-4,2.15-6.29,4.48-6.29s4.49,2.3,4.49,6.29-2.16,6.29-4.49,6.29S137.25,155.39,137.25,151.4Zm6.17,0c0-2.08-.56-3.42-1.69-3.42S140,149.32,140,151.4s.56,3.42,1.69,3.42S143.42,153.48,143.42,151.4Z"/>
        <path class="cls-1" d="M148.09,145.4h2.23l.19,1.52h.07a3.92,3.92,0,0,1,3-1.81c2,0,2.86,1.84,2.86,4.84v7.45h-2.73v-7c0-1.72-.36-2.26-1.15-2.26s-1.1.41-1.7,1.16v8.1h-2.73Z"/>
        <path class="cls-1" d="M157.9,156l1.23-2.22a3.53,3.53,0,0,0,2.37,1.26c.82,0,1.17-.4,1.17-1,0-.79-.92-1.15-1.86-1.64a3.83,3.83,0,0,1-2.44-3.53,3.44,3.44,0,0,1,3.52-3.75,4.6,4.6,0,0,1,3.25,1.52l-1.23,2.13a3,3,0,0,0-1.94-1c-.7,0-1.05.36-1.05,1,0,.76.86,1.05,1.82,1.51a3.69,3.69,0,0,1,2.48,3.61,3.59,3.59,0,0,1-3.78,3.87A5.2,5.2,0,0,1,157.9,156Z"/>
        <path class="cls-1" d="M166.4,151.4c0-4,2.16-6.29,4.49-6.29s4.49,2.3,4.49,6.29-2.16,6.29-4.49,6.29S166.4,155.39,166.4,151.4Zm6.18,0c0-2.08-.56-3.42-1.69-3.42s-1.69,1.34-1.69,3.42.56,3.42,1.69,3.42S172.58,153.48,172.58,151.4Z"/>
        <path class="cls-1" d="M177.1,153.67V140.45h2.73v13.37c0,.76.27,1,.49,1a.93.93,0,0,0,.34,0l.32,2.63a2.91,2.91,0,0,1-1.37.29C177.74,157.69,177.1,156.1,177.1,153.67Z"/>
        <path class="cls-1" d="M181.88,151.4c0-3.89,2.13-6.29,4.34-6.29,2.63,0,3.93,2.48,3.93,5.76a10.52,10.52,0,0,1-.12,1.57h-5.51c.25,1.74,1.16,2.54,2.39,2.54a3.28,3.28,0,0,0,2-.78l.9,2.14a5.08,5.08,0,0,1-3.26,1.35C183.91,157.69,181.88,155.38,181.88,151.4Zm5.93-1.31c0-1.32-.44-2.27-1.53-2.27-.86,0-1.6.75-1.79,2.27Z"/>
        <path class="cls-1" d="M196.11,153v-4.85h-1.26v-2.66l1.41-.13.32-3.19h2.26v3.19H201v2.79h-2.2V153c0,1.37.47,1.91,1.19,1.91a2.17,2.17,0,0,0,.88-.23l.43,2.59a5.23,5.23,0,0,1-2.05.43C197,157.69,196.11,155.82,196.11,153Z"/>
        <path class="cls-1" d="M202,151.4c0-4,2.15-6.29,4.48-6.29s4.49,2.3,4.49,6.29-2.15,6.29-4.49,6.29S202,155.39,202,151.4Zm6.17,0c0-2.08-.56-3.42-1.69-3.42s-1.69,1.34-1.69,3.42.56,3.42,1.69,3.42S208.15,153.48,208.15,151.4Z"/>
        <path class="cls-1" d="M212.29,151.4c0-4,2.15-6.29,4.48-6.29s4.49,2.3,4.49,6.29-2.16,6.29-4.49,6.29S212.29,155.39,212.29,151.4Zm6.17,0c0-2.08-.56-3.42-1.69-3.42s-1.69,1.34-1.69,3.42.56,3.42,1.69,3.42S218.46,153.48,218.46,151.4Z"/>
        <path class="cls-1" d="M223,153.67V140.45h2.73v13.37c0,.76.27,1,.49,1a.93.93,0,0,0,.34,0l.32,2.63a2.91,2.91,0,0,1-1.37.29C223.62,157.69,223,156.1,223,153.67Z"/>
        <path class="cls-1" d="M227.48,156l1.23-2.22a3.53,3.53,0,0,0,2.37,1.26c.81,0,1.17-.4,1.17-1,0-.79-.92-1.15-1.87-1.64a3.84,3.84,0,0,1-2.43-3.53,3.44,3.44,0,0,1,3.52-3.75,4.56,4.56,0,0,1,3.24,1.52l-1.22,2.13a3,3,0,0,0-1.94-1c-.7,0-1.05.36-1.05,1,0,.76.86,1.05,1.82,1.51a3.71,3.71,0,0,1,2.48,3.61,3.59,3.59,0,0,1-3.79,3.87A5.2,5.2,0,0,1,227.48,156Z"/>
        <path class="cls-1" d="M236.83,155.46c0-1.27.7-2.25,1.64-2.25s1.65,1,1.65,2.25-.7,2.23-1.65,2.23S236.83,156.72,236.83,155.46Zm.37-11.06-.09-3.21h2.73l-.09,3.21-.38,7.4h-1.79Z"/>
      </g>
      <g>
        <path class="cls-1" d="M101.16,182h2.74v15.77h-2.74Z"/>
        <path class="cls-1" d="M109.71,191.78c0-4,2.25-6.3,4.8-6.3a3.55,3.55,0,0,1,2.69,1.29l-1.29,2.29a1.67,1.67,0,0,0-1.25-.71c-1.31,0-2.15,1.35-2.15,3.43s.87,3.42,2.06,3.42a2.44,2.44,0,0,0,1.66-.89l1.07,2.33a4,4,0,0,1-3,1.43C111.69,198.07,109.71,195.76,109.71,191.78Z"/>
        <path class="cls-1" d="M118.92,185.77h2.23l.2,2.1h.07c.67-1.6,1.67-2.39,2.61-2.39a2.06,2.06,0,0,1,1.1.24l-.45,3.07a3.12,3.12,0,0,0-1-.19c-.69,0-1.53.58-2,2.22v7h-2.73Z"/>
        <path class="cls-1" d="M125.6,191.78c0-3.9,2.13-6.3,4.35-6.3,2.62,0,3.92,2.49,3.92,5.76a11,11,0,0,1-.11,1.58h-5.51c.24,1.74,1.16,2.54,2.38,2.54a3.26,3.26,0,0,0,2-.79l.9,2.15a5.1,5.1,0,0,1-3.27,1.35C127.63,198.07,125.6,195.75,125.6,191.78Zm5.94-1.32c0-1.32-.44-2.27-1.53-2.27-.87,0-1.61.76-1.8,2.27Z"/>
        <path class="cls-1" d="M135.12,194.45c0-2.53,1.55-3.9,5.19-4.4-.06-1.05-.46-1.74-1.46-1.74a4.39,4.39,0,0,0-2.44,1.09l-1-2.34a6.39,6.39,0,0,1,3.94-1.58c2.35,0,3.66,1.76,3.66,5.43v6.87h-2.23l-.2-1.23h-.06a3.68,3.68,0,0,1-2.68,1.52C136.19,198.07,135.12,196.47,135.12,194.45Zm5.19-.16v-2.1c-1.94.34-2.58,1.07-2.58,2s.41,1.16,1.06,1.16S139.82,194.92,140.31,194.29Z"/>
        <path class="cls-1" d="M145.37,193.41v-4.85h-1.26v-2.65l1.41-.14.32-3.19h2.26v3.19h2.21v2.79H148.1v4.81c0,1.36.47,1.91,1.19,1.91a2.24,2.24,0,0,0,.88-.23l.43,2.58a5.17,5.17,0,0,1-2,.44C146.28,198.07,145.37,196.2,145.37,193.41Z"/>
        <path class="cls-1" d="M151.24,191.78c0-3.9,2.13-6.3,4.34-6.3,2.63,0,3.93,2.49,3.93,5.76a11,11,0,0,1-.11,1.58h-5.52c.25,1.74,1.16,2.54,2.39,2.54a3.26,3.26,0,0,0,2-.79l.9,2.15a5.12,5.12,0,0,1-3.27,1.35C153.27,198.07,151.24,195.75,151.24,191.78Zm5.94-1.32c0-1.32-.44-2.27-1.53-2.27-.87,0-1.61.76-1.8,2.27Z"/>
        <path class="cls-1" d="M164.68,194.45c0-2.53,1.54-3.9,5.19-4.4-.06-1.05-.46-1.74-1.46-1.74A4.36,4.36,0,0,0,166,189.4l-1-2.34a6.39,6.39,0,0,1,3.94-1.58c2.35,0,3.65,1.76,3.65,5.43v6.87h-2.22l-.2-1.23h-.07a3.65,3.65,0,0,1-2.68,1.52C165.74,198.07,164.68,196.47,164.68,194.45Zm5.19-.16v-2.1c-2,.34-2.58,1.07-2.58,2s.41,1.16,1.06,1.16S169.38,194.92,169.87,194.29Z"/>
        <path class="cls-1" d="M174.89,185.77h2.23l.2,1.54h.06c.76-1,1.58-1.83,2.79-1.83a2.59,2.59,0,0,1,2.55,2c.81-1.1,1.67-2,2.89-2,2,0,2.88,1.84,2.88,4.84v7.46h-2.73v-7c0-1.73-.36-2.27-1.13-2.27-.47,0-1,.38-1.57,1.17v8.1h-2.73v-7c0-1.73-.37-2.27-1.14-2.27-.46,0-1,.38-1.57,1.17v8.1h-2.73Z"/>
        <path class="cls-1" d="M190.39,194.45c0-2.53,1.54-3.9,5.18-4.4,0-1.05-.45-1.74-1.45-1.74a4.33,4.33,0,0,0-2.44,1.09l-1-2.34a6.39,6.39,0,0,1,3.93-1.58c2.36,0,3.66,1.76,3.66,5.43v6.87h-2.22l-.2-1.23h-.07a3.65,3.65,0,0,1-2.68,1.52C191.45,198.07,190.39,196.47,190.39,194.45Zm5.18-.16v-2.1c-1.94.34-2.57,1.07-2.57,2s.41,1.16,1.06,1.16S195.09,194.92,195.57,194.29Z"/>
        <path class="cls-1" d="M200.1,195.88l3.86-7.32h-3.42v-2.79h6.83v1.9L203.5,195h4v2.79H200.1Z"/>
        <path class="cls-1" d="M208.94,182.16a1.6,1.6,0,1,1,1.58,1.86A1.67,1.67,0,0,1,208.94,182.16Zm.21,3.61h2.73v12h-2.73Z"/>
        <path class="cls-1" d="M214.28,185.77h2.23l.2,1.52h.06a3.94,3.94,0,0,1,3-1.81c2,0,2.86,1.84,2.86,4.84v7.46h-2.73v-7c0-1.73-.36-2.27-1.14-2.27s-1.11.42-1.71,1.17v8.1h-2.73Z"/>
        <path class="cls-1" d="M224.34,199.84a2.89,2.89,0,0,1,1.31-2.42v-.1a2.51,2.51,0,0,1-.84-2,3.18,3.18,0,0,1,1-2.25v-.1a4.25,4.25,0,0,1-1.23-3.11c0-2.89,1.82-4.35,3.81-4.35a3.6,3.6,0,0,1,1.42.29h3.37v2.59h-1.48A4,4,0,0,1,232,190c0,2.76-1.61,4-3.62,4a3.12,3.12,0,0,1-1.13-.23,1.17,1.17,0,0,0-.32.89c0,.59.37.88,1.38.88h1.49c2.26,0,3.52.9,3.52,3,0,2.5-2,4.31-5.16,4.31C226.05,202.88,224.34,202,224.34,199.84Zm6.4-.66c0-.76-.5-.93-1.41-.93h-1a3.73,3.73,0,0,1-1.3-.16,1.69,1.69,0,0,0-.49,1.18c0,.91.81,1.38,2,1.38S230.74,200,230.74,199.18Zm-1.08-9.35c0-1.28-.53-2-1.25-2s-1.26.67-1.26,2,.54,2,1.26,2S229.66,191.14,229.66,189.83Z"/>
        <path class="cls-1" d="M238.46,193.23v-7.46h2.73v7c0,1.73.35,2.27,1.14,2.27s1.11-.38,1.64-1.32v-7.95h2.73v12h-2.23l-.19-1.67h-.07a3.45,3.45,0,0,1-2.89,2C239.31,198.07,238.46,196.23,238.46,193.23Z"/>
        <path class="cls-1" d="M248.29,196.39l1.23-2.21a3.53,3.53,0,0,0,2.37,1.26c.82,0,1.17-.41,1.17-1,0-.79-.92-1.15-1.86-1.63a3.85,3.85,0,0,1-2.44-3.53,3.44,3.44,0,0,1,3.52-3.76,4.56,4.56,0,0,1,3.24,1.52l-1.22,2.14a3,3,0,0,0-1.94-1c-.7,0-1.05.36-1.05,1,0,.77.86,1.06,1.82,1.51a3.73,3.73,0,0,1,2.48,3.62,3.59,3.59,0,0,1-3.78,3.87A5.21,5.21,0,0,1,248.29,196.39Z"/>
        <path class="cls-1" d="M256.79,191.78c0-3.9,2.13-6.3,4.35-6.3,2.62,0,3.92,2.49,3.92,5.76a11,11,0,0,1-.11,1.58h-5.51c.24,1.74,1.16,2.54,2.39,2.54a3.25,3.25,0,0,0,2-.79l.9,2.15a5.1,5.1,0,0,1-3.27,1.35C258.83,198.07,256.79,195.75,256.79,191.78Zm5.94-1.32c0-1.32-.44-2.27-1.53-2.27-.86,0-1.61.76-1.79,2.27Z"/>
        <path class="cls-1" d="M266.94,185.77h2.23l.19,2.1h.07c.67-1.6,1.68-2.39,2.62-2.39a2.09,2.09,0,0,1,1.1.24l-.46,3.07a3.06,3.06,0,0,0-1-.19c-.7,0-1.54.58-2,2.22v7h-2.73Z"/>
      </g>
      <g>
        <path class="cls-1" d="M76.58,221.79c0-3.89,2.13-6.29,4.34-6.29,2.63,0,3.93,2.48,3.93,5.76a9.31,9.31,0,0,1-.12,1.57H79.22c.25,1.74,1.16,2.54,2.39,2.54a3.22,3.22,0,0,0,2-.78l.9,2.14a5.08,5.08,0,0,1-3.26,1.35C78.61,228.08,76.58,225.77,76.58,221.79Zm5.93-1.31c0-1.32-.44-2.27-1.53-2.27-.86,0-1.6.75-1.79,2.27Z"/>
        <path class="cls-1" d="M88.32,221.54l-2.67-5.75h2.93l.82,1.94c.25.67.52,1.38.78,2h.07c.2-.66.44-1.37.63-2l.63-1.94h2.83L91.68,222l2.83,5.84H91.58l-.9-2c-.29-.69-.57-1.41-.87-2.09h-.07c-.24.68-.48,1.38-.71,2.09l-.72,2H85.48Z"/>
        <path class="cls-1" d="M96,215.79H98.2l.19,1.18h.07a3.73,3.73,0,0,1,2.63-1.47c2.23,0,3.59,2.4,3.59,6.1,0,4.12-1.88,6.48-3.87,6.48a2.92,2.92,0,0,1-2.2-1.25l.09,1.9v3.52H96Zm5.91,5.85c0-2.15-.51-3.23-1.6-3.23-.56,0-1,.32-1.58,1.07v4.93a1.93,1.93,0,0,0,1.47.76C101.12,225.17,101.88,224.12,101.88,221.64Z"/>
        <path class="cls-1" d="M106.08,221.79c0-3.89,2.13-6.29,4.34-6.29,2.63,0,3.93,2.48,3.93,5.76a9.31,9.31,0,0,1-.12,1.57h-5.51c.25,1.74,1.16,2.54,2.39,2.54a3.22,3.22,0,0,0,2-.78l.9,2.14a5.08,5.08,0,0,1-3.26,1.35C108.11,228.08,106.08,225.77,106.08,221.79Zm5.93-1.31c0-1.32-.44-2.27-1.53-2.27-.86,0-1.6.75-1.79,2.27Z"/>
        <path class="cls-1" d="M116.22,215.79h2.23l.2,2.09h.06c.68-1.6,1.68-2.38,2.62-2.38a2,2,0,0,1,1.1.24l-.45,3.07a2.87,2.87,0,0,0-1-.2c-.69,0-1.53.59-2,2.22v7h-2.73Z"/>
        <path class="cls-1" d="M123.41,212.17A1.6,1.6,0,1,1,125,214,1.67,1.67,0,0,1,123.41,212.17Zm.21,3.62h2.73v12h-2.73Z"/>
        <path class="cls-1" d="M128.22,221.79c0-3.89,2.13-6.29,4.34-6.29,2.63,0,3.93,2.48,3.93,5.76a9.31,9.31,0,0,1-.12,1.57h-5.51c.25,1.74,1.16,2.54,2.39,2.54a3.2,3.2,0,0,0,2-.78l.91,2.14a5.12,5.12,0,0,1-3.27,1.35C130.25,228.08,128.22,225.77,128.22,221.79Zm5.94-1.31c0-1.32-.45-2.27-1.53-2.27-.87,0-1.61.75-1.8,2.27Z"/>
        <path class="cls-1" d="M138.37,215.79h2.22l.2,1.52h.07a3.91,3.91,0,0,1,3-1.81c2,0,2.85,1.84,2.85,4.84v7.45H144v-7c0-1.72-.36-2.26-1.15-2.26s-1.1.41-1.71,1.16v8.1h-2.72Z"/>
        <path class="cls-1" d="M148.46,221.79c0-4,2.25-6.29,4.8-6.29a3.52,3.52,0,0,1,2.69,1.29l-1.29,2.29a1.67,1.67,0,0,0-1.25-.71c-1.31,0-2.16,1.35-2.16,3.42s.88,3.42,2.07,3.42a2.49,2.49,0,0,0,1.66-.88l1.07,2.32a4,4,0,0,1-3,1.43C150.44,228.08,148.46,225.78,148.46,221.79Z"/>
        <path class="cls-1" d="M156.62,221.79c0-3.89,2.13-6.29,4.34-6.29,2.63,0,3.93,2.48,3.93,5.76a9.31,9.31,0,0,1-.12,1.57h-5.51c.25,1.74,1.16,2.54,2.39,2.54a3.22,3.22,0,0,0,2-.78l.9,2.14a5.08,5.08,0,0,1-3.26,1.35C158.65,228.08,156.62,225.77,156.62,221.79Zm5.93-1.31c0-1.32-.44-2.27-1.53-2.27-.86,0-1.6.75-1.79,2.27Z"/>
        <path class="cls-1" d="M166,226.41l1.23-2.22a3.53,3.53,0,0,0,2.37,1.26c.82,0,1.17-.4,1.17-1,0-.79-.92-1.15-1.86-1.64a3.82,3.82,0,0,1-2.44-3.53,3.44,3.44,0,0,1,3.52-3.75,4.56,4.56,0,0,1,3.24,1.52L172,219.15a3,3,0,0,0-1.94-1c-.7,0-1.05.36-1.05,1,0,.76.86,1.06,1.82,1.51a3.72,3.72,0,0,1,2.48,3.61,3.59,3.59,0,0,1-3.78,3.87A5.2,5.2,0,0,1,166,226.41Z"/>
        <path class="cls-1" d="M178.28,224.46c0-2.53,1.54-3.9,5.19-4.4-.06-1.05-.46-1.73-1.46-1.73a4.36,4.36,0,0,0-2.44,1.08l-1-2.33a6.39,6.39,0,0,1,3.94-1.58c2.35,0,3.66,1.75,3.66,5.43v6.86H184l-.2-1.23h-.06a3.69,3.69,0,0,1-2.69,1.52C179.34,228.08,178.28,226.49,178.28,224.46Zm5.19-.16v-2.09c-1.94.34-2.58,1.06-2.58,2s.41,1.15,1.06,1.15S183,224.93,183.47,224.3Z"/>
        <path class="cls-1" d="M188.49,215.79h2.23l.2,1.52H191a3.94,3.94,0,0,1,3-1.81c2,0,2.85,1.84,2.85,4.84v7.45h-2.73v-7c0-1.72-.35-2.26-1.14-2.26s-1.11.41-1.71,1.16v8.1h-2.73Z"/>
        <path class="cls-1" d="M198.64,221.79c0-3.92,1.89-6.29,3.82-6.29a2.75,2.75,0,0,1,2.26,1.25l-.09-1.82v-4.09h2.73v16.95h-2.23l-.2-1.19h-.07a3.36,3.36,0,0,1-2.45,1.48C200.12,228.08,198.64,225.71,198.64,221.79Zm6,2.31v-4.93a2,2,0,0,0-1.53-.76c-.88,0-1.66,1.06-1.66,3.34s.63,3.42,1.68,3.42C203.7,225.17,204.17,224.88,204.63,224.1Z"/>
        <path class="cls-1" d="M213.47,215.79h2.23l.2,1.54H216a3.67,3.67,0,0,1,2.8-1.83,2.58,2.58,0,0,1,2.54,2c.81-1.1,1.68-2,2.89-2,2,0,2.88,1.84,2.88,4.84v7.45h-2.73v-7c0-1.72-.36-2.26-1.13-2.26-.47,0-1,.37-1.57,1.16v8.1h-2.73v-7c0-1.72-.36-2.26-1.14-2.26-.45,0-1,.37-1.57,1.16v8.1h-2.73Z"/>
        <path class="cls-1" d="M229.3,223.24v-7.45H232v7c0,1.73.36,2.27,1.15,2.27s1.1-.37,1.64-1.32v-7.94h2.72v12h-2.22l-.2-1.66h-.07a3.44,3.44,0,0,1-2.89,2C230.16,228.08,229.3,226.24,229.3,223.24Z"/>
        <path class="cls-1" d="M239.41,221.79c0-4,2.26-6.29,4.8-6.29a3.52,3.52,0,0,1,2.7,1.29l-1.29,2.29a1.67,1.67,0,0,0-1.25-.71c-1.32,0-2.16,1.35-2.16,3.42s.88,3.42,2.07,3.42a2.49,2.49,0,0,0,1.66-.88l1.07,2.32a4,4,0,0,1-3,1.43C241.4,228.08,239.41,225.78,239.41,221.79Z"/>
        <path class="cls-1" d="M248.63,210.84h2.73V215l-.12,2.17a3.85,3.85,0,0,1,2.84-1.65c2,0,2.86,1.84,2.86,4.84v7.45h-2.73v-7c0-1.72-.36-2.26-1.14-2.26s-1.11.41-1.71,1.16v8.1h-2.73Z"/>
        <path class="cls-1" d="M263,215.79h2.22l.2,1.54h.07a3.63,3.63,0,0,1,2.79-1.83,2.57,2.57,0,0,1,2.54,2c.81-1.1,1.68-2,2.89-2,2,0,2.89,1.84,2.89,4.84v7.45h-2.73v-7c0-1.72-.37-2.26-1.14-2.26-.46,0-1,.37-1.57,1.16v8.1h-2.73v-7c0-1.72-.36-2.26-1.14-2.26-.45,0-1,.37-1.56,1.16v8.1H263Z"/>
        <path class="cls-1" d="M278.34,221.79c0-4,2.16-6.29,4.49-6.29s4.48,2.3,4.48,6.29-2.15,6.29-4.48,6.29S278.34,225.78,278.34,221.79Zm6.18,0c0-2.07-.56-3.42-1.69-3.42s-1.69,1.35-1.69,3.42.56,3.42,1.69,3.42S284.52,223.87,284.52,221.79Z"/>
        <path class="cls-1" d="M289.18,215.79h2.23l.2,2.09h.06c.67-1.6,1.68-2.38,2.62-2.38a2,2,0,0,1,1.1.24l-.45,3.07a2.87,2.87,0,0,0-1-.2c-.69,0-1.54.59-2,2.22v7h-2.73Z"/>
        <path class="cls-1" d="M295.86,221.79c0-3.89,2.13-6.29,4.34-6.29,2.63,0,3.93,2.48,3.93,5.76a9.31,9.31,0,0,1-.12,1.57H298.5c.25,1.74,1.16,2.54,2.39,2.54a3.2,3.2,0,0,0,2-.78l.91,2.14a5.12,5.12,0,0,1-3.27,1.35C297.89,228.08,295.86,225.77,295.86,221.79Zm5.94-1.31c0-1.32-.44-2.27-1.53-2.27-.87,0-1.61.75-1.8,2.27Z"/>
      </g>
    </g>
  </g>
</svg>
